<svg xmlns="http://www.w3.org/2000/svg" xmlns:xlink="http://www.w3.org/1999/xlink" viewBox="0 0 136.19 136.67"><defs><style>.cls-1{fill:url(#linear-gradient);}.cls-2{fill:url(#linear-gradient-2);}.cls-3{fill:url(#linear-gradient-3);}.cls-4{fill:url(#linear-gradient-4);}.cls-5{fill:#dbb165;}</style><linearGradient id="linear-gradient" y1="40.02" x2="70.82" y2="40.02" gradientUnits="userSpaceOnUse"><stop offset="0" stop-color="#f7cc7a"/><stop offset="1" stop-color="#8a7038"/></linearGradient><linearGradient id="linear-gradient-2" x1="63.86" y1="77.43" x2="136.19" y2="77.43" xlink:href="#linear-gradient"/><linearGradient id="linear-gradient-3" x1="59.25" y1="64.73" x2="122.04" y2="64.73" xlink:href="#linear-gradient"/><linearGradient id="linear-gradient-4" x1="0.21" y1="124.51" x2="74.6" y2="124.51" xlink:href="#linear-gradient"/></defs><title>锦添电商LOGO</title><g id="图层_2" data-name="图层 2"><g id="图层_1-2" data-name="图层 1"><path class="cls-1" d="M70.22,16a11.24,11.24,0,0,1,.6-4.63A60.53,60.53,0,0,0,0,69.61,58.23,58.23,0,0,1,70.22,16Z"/><path class="cls-2" d="M97.21,18.94a.88.88,0,0,0,0,.15c-.39,1.62.34,3.76,2,6.14A58.19,58.19,0,0,1,63.86,134.75,60.47,60.47,0,0,0,97.21,18.94Z"/><path class="cls-3" d="M83,23c-11.13,4.89-14.67,12.47-15,18.09-.29,4.4.06,9.68,11.64,18.27A28.18,28.18,0,0,1,87.76,69c4.67,9,9.92,26.76,4.25,57.28a16,16,0,0,1-1.87-.65c-5.72-2.43-10.61-1-12.57-.68s-6.45-.48-5.42-3.52,9.1-1.58,9.1-1.58c-7.25-9.14-14.06-.74-14.06-.74s-4.4-3.42-7.37,3.32c-2.33,5.29,3.07,6.5,5.52,6.78h0a11.7,11.7,0,0,0,8.91-1.71h0s2.64-1.17,7.85-.62c1.52.3,2.94.55,4.25.73h0c12.33,1.77,15.31-1.3,15.31-1.3a14.93,14.93,0,0,1-1.86.38c-.54-4-7.13-55,5-49.1C113.32,82,122,100.89,122,100.89S125,40.5,95,38.18c-8.18-.63-10.89,5.13-10.89,5.13s-11-4.4-.37-12.71S99.07,19.47,97.36,11.28c-.84-4-5.06-6.24-9.72-6.61,4.13-3.68,11-2.47,11-2.47A15.06,15.06,0,0,0,90.15,0c-5.39.6-9.89,4.62-10.94,5.63A16.51,16.51,0,0,0,73.66,8.6a32.19,32.19,0,0,1,5.78-1.84,17.85,17.85,0,0,1,6.71-.33,7.91,7.91,0,0,1,3.41,1.43C94.81,11.9,94.08,18.13,83,23Zm12.88,87.16a66.5,66.5,0,0,1,.49,16.74c-.47,0-1,0-1.48-.1A41,41,0,0,0,95.84,110.18ZM95,50.12c1.08-1.8,3.91-4.89,8.31-1.14S115,68.05,115.16,76.52c0,0-13.69-26.89-19.39-21S94.25,51.28,95,50.12Z"/><path class="cls-4" d="M54.38,130c-10-4.27-18.61-1.81-22.05-1.2s-11.29-.84-9.5-6.16,16-2.77,16-2.77c-12.72-16-24.65-1.3-24.65-1.3s-7.73-6-12.94,5.82c-4.08,9.27,5.39,11.4,9.69,11.89h0s8.38,2.14,15.62-3h0s4.62-2,13.76-1.09q4,.81,7.45,1.3h0c21.62,3.11,26.84-2.27,26.84-2.27S64.41,134.22,54.38,130Z"/><path class="cls-5" d="M54.28,62.12l-.22.12a9.08,9.08,0,0,1,2.26,4.68C58.27,68.53,60,64.17,54.28,62.12Z"/><path class="cls-5" d="M49.33,39.63,47,38.72v7.46h.33c.88,0,1.87-.5,1.87-.7V40.21h2.1V47.8h.39a2.3,2.3,0,0,0,1.75-.53V40.21h2v3.47c0,.2-.06.31-.3.31s-1-.05-1-.05v.29a1.14,1.14,0,0,1,.89.56,3.71,3.71,0,0,1,.2,1.33c2.06-.18,2.32-.92,2.32-2.26V40.57a1.42,1.42,0,0,0,.83-.42l-2.16-1.63-.95,1.11H53.45V37.51h1.43v.56h.39A2.47,2.47,0,0,0,57,37.59V32a1.18,1.18,0,0,0,.79-.39l-2-1.47-1,1.13H51.49c.51-.46,1.15-1.05,1.58-1.47.42,0,.7-.2.76-.53l-3.08-.44c-.06.69-.18,1.74-.31,2.44H50l-2.26-.89v8.12h.36c1,0,1.66-.37,1.66-.51v-.46h1.51v2.12Zm.47-7.81h5.08v2.26H49.8Zm0,5.12V34.66h5.08v2.28Z"/><path class="cls-5" d="M43.89,29.6l-3.11-.83A23.54,23.54,0,0,1,39,36.56l.22.14a8,8,0,0,0,1-1.05l.06.24h1.36V39H39.26l.17.59h2.28v4.27c0,.43-.12.61-1,1.13l1.63,2.28a1.93,1.93,0,0,0,.59-.82c1.57-1.78,2.8-3.45,3.45-4.3l-.12-.2c-.81.5-1.64,1-2.4,1.45V39.55h2.48c.26,0,.48-.11.52-.33-.66-.68-1.79-1.69-1.79-1.69l-1,1.43h-.2V35.89H46c.29,0,.47-.1.53-.32-.69-.71-1.84-1.71-1.84-1.71l-1,1.45H40.58a14.64,14.64,0,0,0,1.81-3h3.94c.28,0,.48-.1.54-.32-.68-.67-1.81-1.64-1.81-1.64l-1,1.4H42.63a14,14,0,0,0,.55-1.66C43.66,30,43.85,29.84,43.89,29.6Z"/><path class="cls-5" d="M52.06,62.6l-.24.08a9.56,9.56,0,0,1,.82,4.2C54.26,68.57,56.36,65,52.06,62.6Z"/><path class="cls-5" d="M49.05,67.2c0,.24-.1.35-.4.35s-2.36-.15-2.36-.15v.29a2.67,2.67,0,0,1,1.65.72A3,3,0,0,1,48.39,70c2.5-.22,2.82-1.09,2.82-2.65V60.7c.42-.06.63-.2.67-.5l-2.83-.26Z"/><path class="cls-5" d="M47.17,62.18a3.94,3.94,0,0,1-2.42,3.17c-1.83,2.22,4.1,3.22,2.71-3.15Z"/><path class="cls-5" d="M58.6,60.36a11.3,11.3,0,0,1-5.84-3.11h5c.28,0,.5-.1.56-.32-.84-.81-2.28-2-2.28-2l-1.25,1.72h-4a14.32,14.32,0,0,0,1.11-3.33H56.4c.28,0,.5-.1.56-.32-.79-.77-2.18-1.9-2.18-1.9l-1.21,1.65H45.48l.16.57h3.57a13.57,13.57,0,0,1-.85,3.33H44.83l.17.56h3.14a12.11,12.11,0,0,1-4.92,5.47l.12.22a12.43,12.43,0,0,0,7.12-5.69h1.78a9.7,9.7,0,0,0,4.6,5.39,2.45,2.45,0,0,1,1.72-2Z"/><path class="cls-5" d="M39.43,55.72l-.17.14a5.65,5.65,0,0,1,1.48,2.89C42.69,60.2,44.57,56.39,39.43,55.72Z"/><path class="cls-5" d="M45.1,54.87l-.33-.1c-3.35,7.77-3.35,7.77-3.75,8.54-.22.4-.3.4-.59.4h-.9v.38a2.06,2.06,0,0,1,1,.33c.46.32.56,2.22.18,4.32.14.74.6,1.05,1.07,1.05a1.62,1.62,0,0,0,1.65-1.7c.08-1.78-.74-2.5-.79-3.59a9.89,9.89,0,0,1,.27-1.88C43.18,61.57,44.41,57.21,45.1,54.87Z"/><path class="cls-5" d="M40.86,51.28l-.16.12a8.1,8.1,0,0,1,1.85,3C44.69,55.72,46.31,51.7,40.86,51.28Z"/><path class="cls-5" d="M57.37,89l-.08-3.13h-.23a15.41,15.41,0,0,1-1.11,3,1.07,1.07,0,0,1-.74.34c-.41,0-1.15,0-2.08,0H50.65c-1,0-1.32-.2-1.32-.83V85.78h3.9v1.47h.4a3.81,3.81,0,0,0,2.06-.62v-8.8a1.21,1.21,0,0,0,.79-.41l-2.32-1.81L53,76.86h-3.7V74.15c.51-.08.71-.3.75-.56l-3.15-.34v3.61H43.46l-2.58-1V87.64h.36c1,0,2.06-.57,2.06-.81v-1h3.63v3.31c0,2.08,1,2.52,3.43,2.52h2.57c4.33,0,5.46-.42,5.46-1.59C58.39,89.55,58.15,89.27,57.37,89Zm-8-11.53h3.9v3.62h-3.9Zm0,4.18h3.9v3.59h-3.9Zm-2.4,3.59H43.3V81.62h3.63Zm0-4.15H43.3V77.44h3.63Z"/><path class="cls-5" d="M58.31,98.22c-.94-.81-2.54-2-2.54-2L54.38,98h-4.7c1-.57,1-2.38-2.46-2.61l-.17.13a4.77,4.77,0,0,1,1.07,2.3,1.35,1.35,0,0,0,.29.18h-9l.16.56H57.75C58.05,98.54,58.25,98.44,58.31,98.22Z"/><path class="cls-5" d="M53.43,114.44c2.62-.24,3-1.13,3-2.66v-9.12a1.37,1.37,0,0,0,.82-.45l-2.3-1.75-1.07,1.23H51a23.85,23.85,0,0,0,2.28-2c.46,0,.69-.18.77-.42l-3.15-.73a26.12,26.12,0,0,1-.77,3.11H46.65c1.05-.5,1.15-2.5-2.44-3l-.18.12a6.35,6.35,0,0,1,1.15,2.67,2.12,2.12,0,0,0,.4.24h-2.1l-2.5-1v13.7h.38c1,0,1.94-.52,1.94-.78V102.26H54.06v9.3c0,.26-.08.4-.43.4s-2.26-.14-2.26-.14v.28a2.56,2.56,0,0,1,1.66.75A3.11,3.11,0,0,1,53.43,114.44Z"/><path class="cls-5" d="M50.42,111.82a3.64,3.64,0,0,0,1.76-.5v-3.94a1.13,1.13,0,0,0,.65-.32l-1-.77c2,1.11,3.31-2.74-2.24-3.49l-.19.14a9.36,9.36,0,0,1,2.41,3.33l-.93-.7-1,1H47.42l-1.62-.64A18.13,18.13,0,0,0,48,104.07a.71.71,0,0,0,.83-.26l-2.54-1.35A27,27,0,0,1,43.58,107l.24.2c.45-.24.93-.55,1.42-.87v5.87h.3c.87,0,1.8-.46,1.8-.64v-.73h2.72v1Zm-3.08-1.57v-3.11h2.72v3.11Z"/><path class="cls-5" d="M35.17,35.75l-.06.1-1,0H32.13c-1.09,0-1.53-.09-1.91-.44a1.31,1.31,0,0,1-.46-1c0-.52.2-.75.41-.82a.48.48,0,0,1,.41.49.64.64,0,0,1-.32.57l-.2.15a.58.58,0,0,0,.21.13,7.92,7.92,0,0,0,1.95.11h1.32c.43,0,.71,0,1,0l0-.52h.18Zm1.23-.89a.49.49,0,0,1,.49.52.49.49,0,1,1-1,0A.49.49,0,0,1,36.4,34.86Z"/><path class="cls-5" d="M31.75,39.81h-.2V38h.2l.06.48,1.29,0h.46l1,0,0-.54h.18l.37,1.34-.06.09H31.8Zm4.65-1.43a.49.49,0,0,1,.49.52.49.49,0,1,1-1,0A.49.49,0,0,1,36.4,38.38Z"/><path class="cls-5" d="M31.75,45.65h-.2v-1.8h.2l.06.46,1.29,0h.84c.57,0,.77-.17.77-.52a1.36,1.36,0,0,0-.43-.87H31.8l-.05.43h-.2v-1.8h.2l.06.48h1.76c.43,0,.67,0,1,0l.05-.52h.17l.4,1.26-.06.09-.6,0a1.61,1.61,0,0,1,.67,1.25c0,.62-.4,1-1.28,1H31.8Z"/><path class="cls-5" d="M31.91,49.66a1,1,0,0,1-.47-.95.85.85,0,0,1,1-1H34.8V47.2H35l.07.62,1,.28v.57l-1,0v.87H34.8v-.88H32.36c-.37,0-.52.17-.52.43a.75.75,0,0,0,.19.47Z"/><path class="cls-5" d="M31.75,53.05h-.2V51.24h.2l.06.48h1.75l1,0,0-.53h.18l.37,1.34-.06.09-1,0h-1l-1.3,0Zm4.65-1.43a.52.52,0,1,1-.49.52A.5.5,0,0,1,36.4,51.62Z"/><path class="cls-5" d="M31.9,58.4a.75.75,0,0,1-.45-.75.69.69,0,0,1,.58-.72,1.4,1.4,0,0,1-.59-1.11.86.86,0,0,1,.88-1c.55,0,.87.3,1.19,1.32a7,7,0,0,1,.2.71H34c.7,0,.89-.17.89-.67a1.37,1.37,0,0,0,0-.34l-.47-.09c-.36,0-.51-.21-.51-.43a.37.37,0,0,1,.31-.4c.59.09,1,.64,1,1.55s-.38,1.23-1.3,1.23h-1.7c-.3,0-.4.09-.4.23s.06.18.22.3Zm1.62-1.5c-.06-.19-.11-.38-.16-.49a1,1,0,0,0-.92-.72.5.5,0,0,0-.57.53c0,.22.1.38.35.68Z"/><path class="cls-5" d="M31.75,64.05h-.2V62.24h.2l.06.46c.37,0,.91,0,1.29,0h.84c.57,0,.77-.16.77-.52a1.34,1.34,0,0,0-.43-.86H31.8l-.05.43h-.2V60h.2l.06.48,1.29,0h.47c.43,0,.67,0,1,0l.05-.52h.17l.4,1.27-.06.09-.6,0a1.65,1.65,0,0,1,.67,1.26c0,.62-.4,1-1.28,1H31.8Z"/><path class="cls-5" d="M31.75,69.69h-.2l-.08-1.3.44,0a1.3,1.3,0,0,1-.47-1c0-.86.7-1.51,1.83-1.51s1.91.69,1.91,1.6a1.19,1.19,0,0,1-.46,1h1.71l0-.57h.18L37,69.12l-.06.09-1,0H31.79Zm2.76-1.37a.89.89,0,0,0,.25-.62c0-.52-.37-1-1.45-1s-1.45.41-1.45,1a.88.88,0,0,0,.27.64Z"/><path class="cls-5" d="M31.75,73.23h-.2V71.42h.2l.06.48h1.75c.43,0,.68,0,1,0l0-.53h.18l.37,1.34-.06.09H31.8ZM36.4,71.8a.5.5,0,0,1,.49.52.49.49,0,1,1-1,0A.5.5,0,0,1,36.4,71.8Z"/><path class="cls-5" d="M31.9,78.58a.75.75,0,0,1-.45-.75.69.69,0,0,1,.58-.72A1.4,1.4,0,0,1,31.44,76a.86.86,0,0,1,.88-1c.55,0,.87.3,1.19,1.32a7.23,7.23,0,0,1,.2.72H34c.7,0,.89-.18.89-.68a1.37,1.37,0,0,0,0-.34L34.42,76c-.36,0-.51-.21-.51-.43a.37.37,0,0,1,.31-.4c.59.09,1,.64,1,1.55s-.38,1.23-1.3,1.23h-1.7c-.3,0-.4.09-.4.24s.06.17.22.29Zm1.62-1.49a5.05,5.05,0,0,0-.16-.5,1,1,0,0,0-.92-.72.5.5,0,0,0-.57.53c0,.22.1.38.35.69Z"/><path class="cls-5" d="M31.75,84.23h-.2V82.42h.2l.06.46c.37,0,.91,0,1.29,0h.84c.57,0,.77-.16.77-.52a1.34,1.34,0,0,0-.43-.86H31.8l-.05.43h-.2v-1.8h.2l.06.48h1.76c.43,0,.67,0,1,0l.05-.52h.17l.4,1.27-.06.09-.6.05a1.61,1.61,0,0,1,.67,1.25c0,.62-.4,1-1.28,1H31.8Z"/><path class="cls-5" d="M33.66,87.78c-.23.69-.58,1-1.09,1-.67,0-1.13-.54-1.13-1.5a2.53,2.53,0,0,1,.3-1.22l.86,0v.38l-.8.19a1.48,1.48,0,0,0-.1.57c0,.53.2.81.56.81s.48-.15.65-.67L33,87c.18-.57.49-.92,1-.92s1.12.5,1.12,1.4a2.28,2.28,0,0,1-.3,1.11l-.79,0v-.34l.71-.2a1.06,1.06,0,0,0,.12-.5c0-.44-.21-.69-.53-.69s-.46.15-.62.66Z"/><path class="cls-5" d="M31.75,94.53h-.2v-1.8h.2l.06.47,1.29,0h.84c.57,0,.77-.19.77-.54a1.32,1.32,0,0,0-.43-.87H33.1l-1.3,0-.05.42h-.2V90.46h.2l.06.48h4.63l0-.53h.18L37,91.73l-.06.09-1,0H34.5a1.63,1.63,0,0,1,.68,1.26c0,.63-.38,1-1.29,1H33.1l-1.3,0Z"/><path class="cls-5" d="M31.9,99.84a.75.75,0,0,1-.45-.75.68.68,0,0,1,.58-.72,1.4,1.4,0,0,1-.59-1.11.86.86,0,0,1,.88-1c.55,0,.87.3,1.19,1.31.07.2.14.47.2.72H34c.7,0,.89-.18.89-.67a1.37,1.37,0,0,0,0-.34l-.47-.1c-.36,0-.51-.2-.51-.42a.37.37,0,0,1,.31-.4c.59.09,1,.63,1,1.55s-.38,1.23-1.3,1.23h-1.7c-.3,0-.4.09-.4.23s.06.18.22.3Zm1.62-1.5a4.73,4.73,0,0,0-.16-.49,1,1,0,0,0-.92-.72.5.5,0,0,0-.57.53c0,.21.1.38.35.68Z"/><path class="cls-5" d="M31.75,105.48h-.2v-1.8h.2l.06.46,1.29,0h.84c.57,0,.77-.16.77-.52a1.34,1.34,0,0,0-.43-.86H31.8l-.05.43h-.2v-1.81h.2l.06.48,1.29,0h.47c.43,0,.67,0,1,0l.05-.52h.17l.4,1.26-.06.1-.6,0a1.65,1.65,0,0,1,.67,1.26c0,.61-.4,1-1.28,1h-.8l-1.3,0Z"/><path class="cls-5" d="M34.62,110.76l.06-.78a1.1,1.1,0,0,1-.7.22c-.72,0-1.23-.51-1.23-1.43a1.93,1.93,0,0,1,.13-.72.68.68,0,0,0-.42-.14c-.23,0-.36.13-.36.5v1c0,.94-.38,1.32-1,1.32s-1.3-.67-1.3-2c0-1.13.4-1.55.89-1.55.31,0,.56.21.76.67a.61.61,0,0,1,.59-.48c.31,0,.54.16.88.54a1.12,1.12,0,0,1,1-.57c.71,0,1.2.51,1.2,1.44a1.58,1.58,0,0,1-.31,1l.31.83-.07.12Zm-3.25-2.15a2.65,2.65,0,0,1,.05-.64.82.82,0,0,0-.57-.22c-.48,0-.74.38-.74,1,0,.85.3,1.27.7,1.27s.56-.15.56-.63Zm2.62.81c.59,0,1-.24,1-.64s-.38-.65-1-.65-1,.22-1,.63S33.37,109.42,34,109.42Z"/></g></g></svg>